<svg width="165" height="166" viewBox="0 0 165 166" fill="none" xmlns="http://www.w3.org/2000/svg">
<ellipse opacity="0.2" cx="82.4451" cy="82.8251" rx="82.4451" ry="82.8251" fill="white"/>
<rect x="12.165" y="11.1401" width="141.205" height="141.205" rx="70.6027" fill="#FAFAFA" fill-opacity="0.96"/>
<path d="M81.3643 67.7178H70.1445C67.8205 67.7178 65.937 69.6013 65.937 71.9252V95.7674C65.937 98.0913 67.8205 99.9748 70.1445 99.9748H81.3643C83.6882 99.9748 85.5718 98.0913 85.5718 95.7674V71.9252C85.5718 69.6013 83.6882 67.7178 81.3643 67.7178Z" fill="url(#paint0_linear_5522_27352)"/>
<path d="M106.609 55.0957H95.3891C93.0652 55.0957 91.1816 56.9792 91.1816 59.3031V95.7677C91.1816 98.0916 93.0652 99.9751 95.3891 99.9751H106.609C108.933 99.9751 110.816 98.0916 110.816 95.7677V59.3031C110.816 56.9792 108.933 55.0957 106.609 55.0957Z" fill="url(#paint1_linear_5522_27352)"/>
<path opacity="0.3" d="M98.2572 84.5478H96.9416C95.5448 84.5478 94.2489 83.5927 94.0245 82.214C93.7384 80.4567 95.0876 78.9378 96.7916 78.9378H102.246C104.281 78.9378 106.146 77.562 106.529 75.5635C107.045 72.8749 104.997 70.5229 102.401 70.5229H98.8953C97.734 70.5229 96.7916 69.5805 96.7916 68.4192C96.7916 67.258 97.734 66.3155 98.8953 66.3155H99.4465C100.843 66.3155 102.139 65.3604 102.364 63.9818C102.65 62.2245 101.301 60.7056 99.5965 60.7056H91.1816V66.3155V70.5229V73.3279V78.9378V84.5478V92.9626H98.2572C100.546 92.9626 102.401 91.1072 102.401 88.8183V88.7131C102.401 86.4032 100.546 84.5478 98.2572 84.5478Z" fill="url(#paint2_linear_5522_27352)"/>
<path d="M122.317 106.146L116.707 101.939C115.855 101.301 114.718 101.197 113.769 101.674C112.819 102.149 112.219 103.12 112.219 104.183V105.585H60.327V53.6936H61.7295C62.7912 53.6936 63.7631 53.0934 64.2385 52.1439C64.7126 51.193 64.6116 50.057 63.9735 49.2057L59.766 43.5958C58.7057 42.1849 56.3384 42.1849 55.2781 43.5958L51.0706 49.2057C50.4325 50.0556 50.3315 51.193 50.8056 52.1439C51.281 53.0934 52.2529 53.6936 53.3146 53.6936H54.7171V108.39H57.5221V111.195H112.219V112.598C112.219 113.661 112.819 114.631 113.769 115.107C114.167 115.306 114.596 115.403 115.024 115.403C115.62 115.403 116.212 115.212 116.707 114.842L122.317 110.634C123.022 110.106 123.439 109.274 123.439 108.39C123.439 107.507 123.022 106.675 122.317 106.146Z" fill="url(#paint3_linear_5522_27352)"/>
<path d="M57.5222 115.402C61.395 115.402 64.5346 112.263 64.5346 108.39C64.5346 104.517 61.395 101.377 57.5222 101.377C53.6493 101.377 50.5098 104.517 50.5098 108.39C50.5098 112.263 53.6493 115.402 57.5222 115.402Z" fill="url(#paint4_linear_5522_27352)"/>
<defs>
<linearGradient id="paint0_linear_5522_27352" x1="75.7544" y1="68.0262" x2="75.7544" y2="100.283" gradientUnits="userSpaceOnUse">
<stop stop-color="#35E4DD"/>
<stop offset="0.259" stop-color="#22C6C0"/>
<stop offset="1" stop-color="#00B4AD"/>
</linearGradient>
<linearGradient id="paint1_linear_5522_27352" x1="100.999" y1="55.5249" x2="100.999" y2="100.404" gradientUnits="userSpaceOnUse">
<stop stop-color="#35E4DD"/>
<stop offset="0.259" stop-color="#22C6C0"/>
<stop offset="1" stop-color="#00B4AD"/>
</linearGradient>
<linearGradient id="paint2_linear_5522_27352" x1="98.8954" y1="101.876" x2="98.8954" y2="24.7315" gradientUnits="userSpaceOnUse">
<stop stop-color="#0B7F7B"/>
<stop offset="0.28125" stop-color="#138A85"/>
<stop offset="0.53125" stop-color="#20C9C2"/>
</linearGradient>
<linearGradient id="paint3_linear_5522_27352" x1="86.9742" y1="135.536" x2="86.9742" y2="-38.7239" gradientUnits="userSpaceOnUse">
<stop stop-color="#0B7F7B"/>
<stop offset="0.28125" stop-color="#138A85"/>
<stop offset="0.53125" stop-color="#20C9C2"/>
</linearGradient>
<linearGradient id="paint4_linear_5522_27352" x1="57.5222" y1="101.512" x2="57.5222" y2="115.536" gradientUnits="userSpaceOnUse">
<stop stop-color="#35E4DD"/>
<stop offset="0.259" stop-color="#22C6C0"/>
<stop offset="1" stop-color="#00B4AD"/>
</linearGradient>
</defs>
</svg>
