<svg width="165" height="166" viewBox="0 0 165 166" fill="none" xmlns="http://www.w3.org/2000/svg">
<ellipse opacity="0.2" cx="82.4451" cy="82.8251" rx="82.4451" ry="82.8251" fill="white"/>
<rect x="12.165" y="11.1401" width="141.205" height="141.205" rx="70.6027" fill="#FAFAFA" fill-opacity="0.96"/>
<path d="M82.7658 118.468L69.7471 72.9059L73.3449 71.8774L82.7658 104.854L92.1868 71.8774L95.7846 72.9059L82.7658 118.468Z" fill="url(#paint0_linear_5522_27324)"/>
<path d="M82.7688 114.545L47.877 73.6042L50.7212 71.1807L82.7688 108.778L114.816 71.1807L117.661 73.6042L82.7688 114.545Z" fill="url(#paint1_linear_5522_27324)"/>
<path d="M96.037 119.142H77.1577V94.8325H96.037C96.9701 94.8325 97.7274 95.5899 97.7274 96.523V117.452C97.7274 118.385 96.9701 119.142 96.037 119.142Z" fill="url(#paint2_linear_5522_27324)"/>
<path d="M88.4826 119.142H69.5734C68.5991 119.142 67.8081 118.351 67.8081 117.377V96.5978C67.8081 95.6235 68.5991 94.8325 69.5734 94.8325H88.4826C89.4568 94.8325 90.2478 95.6235 90.2478 96.5978V117.377C90.2478 118.351 89.4568 119.142 88.4826 119.142Z" fill="url(#paint3_linear_5522_27324)"/>
<path d="M77.1577 94.8325H80.8977V98.5725H77.1577V94.8325Z" fill="#FFF8E6"/>
<path d="M120.166 72.392L110.816 72.4631C110.816 72.4631 93.9858 44.3779 82.7305 44.3779C114.556 44.3779 120.166 72.392 120.166 72.392Z" fill="url(#paint4_linear_5522_27324)"/>
<path d="M112.685 72.4276C112.685 72.4276 108.498 76.1675 103.335 76.1675C98.1724 76.1675 93.9855 72.4276 93.9855 72.4276C93.9855 72.4276 77.6027 44.3779 82.7657 44.3779C103.335 44.3779 112.685 66.8176 112.685 72.4276Z" fill="url(#paint5_linear_5522_27324)"/>
<path d="M45.3682 72.392L54.718 72.4631C54.718 72.4631 71.5478 44.3779 82.8032 44.3779C50.9781 44.3779 45.3682 72.392 45.3682 72.392Z" fill="url(#paint6_linear_5522_27324)"/>
<path d="M52.8481 72.4276C52.8481 72.4276 57.035 76.1675 62.198 76.1675C67.361 76.1675 71.5479 72.4276 71.5479 72.4276C71.5479 72.4276 87.9308 44.3779 82.7677 44.3779C62.198 44.3779 52.8481 66.8176 52.8481 72.4276Z" fill="url(#paint7_linear_5522_27324)"/>
<path d="M71.5479 72.4279C71.5479 72.4279 67.361 76.1679 62.198 76.1679C57.035 76.1679 52.8481 72.4279 52.8481 72.4279C52.8481 72.4279 57.035 68.688 62.198 68.688C67.361 68.688 71.5479 72.4279 71.5479 72.4279Z" fill="url(#paint8_linear_5522_27324)"/>
<path d="M112.688 72.4276C112.688 72.4276 114.362 74.2976 116.428 74.2976C118.494 74.2976 120.168 72.4276 120.168 72.4276C120.168 72.4276 118.494 70.5576 116.428 70.5576C114.362 70.5576 112.688 72.4276 112.688 72.4276Z" fill="url(#paint9_linear_5522_27324)"/>
<path d="M45.3682 72.4276C45.3682 72.4276 47.0418 74.2976 49.1081 74.2976C51.1744 74.2976 52.8481 72.4276 52.8481 72.4276C52.8481 72.4276 51.1744 70.5576 49.1081 70.5576C47.0418 70.5576 45.3682 72.4276 45.3682 72.4276Z" fill="url(#paint10_linear_5522_27324)"/>
<path d="M93.9885 72.4276C93.9885 72.4276 88.9658 76.1675 82.7687 76.1675C76.5716 76.1675 71.5488 72.4276 71.5488 72.4276C71.5488 46.2479 82.7687 44.3779 82.7687 44.3779C82.7687 44.3779 93.9885 46.2479 93.9885 72.4276Z" fill="url(#paint11_linear_5522_27324)"/>
<defs>
<linearGradient id="paint0_linear_5522_27324" x1="82.7658" y1="71.8774" x2="82.7658" y2="118.468" gradientUnits="userSpaceOnUse">
<stop stop-color="#92A3B0"/>
<stop offset="0.015" stop-color="#A3B5C4"/>
<stop offset="0.032" stop-color="#AEC2D1"/>
<stop offset="0.046" stop-color="#B2C6D6"/>
</linearGradient>
<linearGradient id="paint1_linear_5522_27324" x1="82.7688" y1="71.1807" x2="82.7688" y2="114.544" gradientUnits="userSpaceOnUse">
<stop stop-color="#92A3B0"/>
<stop offset="0.015" stop-color="#A3B5C4"/>
<stop offset="0.032" stop-color="#AEC2D1"/>
<stop offset="0.046" stop-color="#B2C6D6"/>
</linearGradient>
<linearGradient id="paint2_linear_5522_27324" x1="79.239" y1="99.2775" x2="98.4773" y2="118.516" gradientUnits="userSpaceOnUse">
<stop stop-color="#EBA600"/>
<stop offset="1" stop-color="#C28200"/>
</linearGradient>
<linearGradient id="paint3_linear_5522_27324" x1="67.3518" y1="95.3112" x2="93.3426" y2="121.302" gradientUnits="userSpaceOnUse">
<stop stop-color="#FFD869"/>
<stop offset="1" stop-color="#FEC52B"/>
</linearGradient>
<linearGradient id="paint4_linear_5522_27324" x1="101.448" y1="44.6465" x2="101.448" y2="72.7316" gradientUnits="userSpaceOnUse">
<stop stop-color="#35E4DD"/>
<stop offset="0.259" stop-color="#22C6C0"/>
<stop offset="1" stop-color="#00A9A3"/>
</linearGradient>
<linearGradient id="paint5_linear_5522_27324" x1="97.2223" y1="84.9512" x2="97.2223" y2="8.92521" gradientUnits="userSpaceOnUse">
<stop stop-color="#05726E"/>
<stop offset="0.28125" stop-color="#138A85"/>
<stop offset="0.53125" stop-color="#02AAA4"/>
</linearGradient>
<linearGradient id="paint6_linear_5522_27324" x1="64.0857" y1="44.6465" x2="64.0857" y2="72.7316" gradientUnits="userSpaceOnUse">
<stop stop-color="#35E4DD"/>
<stop offset="0.259" stop-color="#22C6C0"/>
<stop offset="1" stop-color="#00A9A3"/>
</linearGradient>
<linearGradient id="paint7_linear_5522_27324" x1="68.3111" y1="84.9512" x2="68.3111" y2="8.92521" gradientUnits="userSpaceOnUse">
<stop stop-color="#05726E"/>
<stop offset="0.28125" stop-color="#138A85"/>
<stop offset="0.53125" stop-color="#02AAA4"/>
</linearGradient>
<linearGradient id="paint8_linear_5522_27324" x1="62.198" y1="78.2346" x2="62.198" y2="60.3462" gradientUnits="userSpaceOnUse">
<stop stop-color="#05726E"/>
<stop offset="0.28125" stop-color="#138A85"/>
<stop offset="0.53125" stop-color="#02AAA4"/>
</linearGradient>
<linearGradient id="paint9_linear_5522_27324" x1="116.428" y1="75.3309" x2="116.428" y2="66.3867" gradientUnits="userSpaceOnUse">
<stop stop-color="#05726E"/>
<stop offset="0.28125" stop-color="#138A85"/>
<stop offset="0.53125" stop-color="#02AAA4"/>
</linearGradient>
<linearGradient id="paint10_linear_5522_27324" x1="49.1081" y1="75.3309" x2="49.1081" y2="66.3867" gradientUnits="userSpaceOnUse">
<stop stop-color="#05726E"/>
<stop offset="0.28125" stop-color="#138A85"/>
<stop offset="0.53125" stop-color="#02AAA4"/>
</linearGradient>
<linearGradient id="paint11_linear_5522_27324" x1="82.7687" y1="44.6819" x2="82.7687" y2="76.4715" gradientUnits="userSpaceOnUse">
<stop stop-color="#35E4DD"/>
<stop offset="0.259" stop-color="#22C6C0"/>
<stop offset="1" stop-color="#00A9A3"/>
</linearGradient>
</defs>
</svg>
