<svg width="165" height="166" viewBox="0 0 165 166" fill="none" xmlns="http://www.w3.org/2000/svg">
<ellipse opacity="0.2" cx="82.4451" cy="82.8251" rx="82.4451" ry="82.8251" fill="white"/>
<rect x="12.165" y="11.1401" width="141.205" height="141.205" rx="70.6027" fill="#FAFAFA" fill-opacity="0.96"/>
<path d="M57.5612 83.2486C56.7625 83.2486 56.048 82.6886 55.8796 81.8779L51.1131 58.7204C50.7851 57.1299 49.3714 55.9773 47.7482 55.9773H44.7372C43.789 55.9773 43.0195 55.2078 43.0195 54.2597C43.0195 53.3115 43.789 52.542 44.7372 52.542H47.7482C50.9929 52.542 53.8236 54.8488 54.478 58.0265L59.2445 81.184C59.4352 82.1132 58.8375 83.0219 57.9082 83.2125C57.7931 83.2383 57.6763 83.2486 57.5612 83.2486Z" fill="url(#paint0_linear_5522_27326)"/>
<path d="M104.856 116.096C107.702 116.096 110.009 113.788 110.009 110.943C110.009 108.097 107.702 105.79 104.856 105.79C102.01 105.79 99.7031 108.097 99.7031 110.943C99.7031 113.788 102.01 116.096 104.856 116.096Z" fill="#5C5F61"/>
<path opacity="0.15" d="M104.856 112.66C105.804 112.66 106.574 111.891 106.574 110.942C106.574 109.994 105.804 109.225 104.856 109.225C103.907 109.225 103.138 109.994 103.138 110.942C103.138 111.891 103.907 112.66 104.856 112.66Z" fill="black"/>
<path d="M67.0666 116.096C69.9125 116.096 72.2195 113.788 72.2195 110.943C72.2195 108.097 69.9125 105.79 67.0666 105.79C64.2206 105.79 61.9136 108.097 61.9136 110.943C61.9136 113.788 64.2206 116.096 67.0666 116.096Z" fill="#5C5F61"/>
<path d="M111.727 107.507H63.6324C59.8432 107.507 56.7617 104.426 56.7617 100.637C56.7617 96.8476 59.8432 93.7661 63.6324 93.7661H106.574C107.522 93.7661 108.292 94.5356 108.292 95.4838C108.292 96.4319 107.522 97.2014 106.574 97.2014H63.6324C61.7378 97.2014 60.197 98.7422 60.197 100.637C60.197 102.531 61.7378 104.072 63.6324 104.072H111.727C112.675 104.072 113.444 104.842 113.444 105.79C113.444 106.738 112.675 107.507 111.727 107.507Z" fill="url(#paint1_linear_5522_27326)"/>
<path d="M48.1734 54.2595C48.1734 56.1558 46.6344 57.6949 44.7381 57.6949C42.8418 57.6949 41.3027 56.1558 41.3027 54.2595C41.3027 52.3632 42.8418 50.8242 44.7381 50.8242C46.6344 50.8242 48.1734 52.3632 48.1734 54.2595Z" fill="url(#paint2_linear_5522_27326)"/>
<path d="M57.9469 94.4078C58.2561 96.0292 59.6732 97.2007 61.3221 97.2007H110.535C112.215 97.2007 113.647 95.9863 113.924 94.3305L117.467 73.0676L52.9365 68.1035L57.9469 94.4078Z" fill="url(#paint3_linear_5522_27326)"/>
<path d="M116.726 66.1391L51.6079 61.1304L52.9357 68.1041L117.465 73.0681L118.287 68.135C118.454 67.1405 117.731 66.2164 116.726 66.1391Z" fill="url(#paint4_linear_5522_27326)"/>
<path opacity="0.05" d="M67.5513 62.3569C66.8832 63.999 66.9416 65.8799 67.8193 67.4412L68.7863 69.1657L68.8104 71.1445C68.8344 73.1782 69.9354 75.0882 71.6875 76.1291L73.3879 77.1374L74.3962 78.8396C75.4354 80.5899 77.3454 81.6926 79.3791 81.715L81.3579 81.739L83.0824 82.7061C83.9618 83.2007 84.9564 83.4601 85.9612 83.4601C86.966 83.4601 87.9606 83.2007 88.8366 82.7078L90.5611 81.7407L92.5398 81.7167C94.5736 81.6926 96.4836 80.5916 97.5245 78.8396L98.5328 77.1391L100.235 76.1308C101.985 75.0917 103.088 73.1816 103.11 71.1479L103.134 69.1692L104.101 67.4446C104.49 66.7541 104.68 65.9932 104.766 65.222L67.5513 62.3569Z" fill="black"/>
<path opacity="0.07" d="M68.4401 62.4248C67.7514 63.8814 67.772 65.6059 68.5673 67.0213L69.6408 68.9382L69.6683 71.1351C69.6889 72.8716 70.6302 74.5017 72.1245 75.3914L74.014 76.5113L75.1356 78.4025C76.0236 79.8968 77.6537 80.8381 79.3902 80.8587L81.5871 80.8862L83.504 81.9598C84.2529 82.3789 85.1014 82.6004 85.9603 82.6004C86.8191 82.6004 87.6676 82.3789 88.4165 81.958L90.3334 80.8845L92.5303 80.857C94.2669 80.8364 95.8969 79.8951 96.7867 78.4008L97.9066 76.5113L99.7977 75.3897C101.292 74.5017 102.233 72.8716 102.254 71.1351L102.281 68.9382L103.355 67.0213C103.681 66.4407 103.843 65.8017 103.918 65.1542L68.4401 62.4248Z" fill="black"/>
<path d="M87.9968 47.9212L90.1043 49.103L92.5211 49.1322C93.9708 49.1493 95.3071 49.9206 96.0474 51.1676L97.2807 53.246L99.3591 54.4792C100.606 55.2195 101.377 56.5559 101.394 58.0056L101.424 60.4223L102.605 62.5299C103.315 63.7941 103.315 65.3366 102.605 66.6008L101.424 68.7083L101.394 71.1251C101.377 72.5748 100.606 73.9111 99.3591 74.6514L97.2807 75.8847L96.0474 77.9631C95.3071 79.2101 93.9708 79.9813 92.5211 79.9985L90.1043 80.0277L87.9968 81.2095C86.7326 81.9188 85.1901 81.9188 83.9259 81.2095L81.8183 80.0277L79.4016 79.9985C77.9519 79.9813 76.6155 79.2101 75.8752 77.9631L74.6419 75.8847L72.5636 74.6514C71.3166 73.9111 70.5453 72.5748 70.5282 71.1251L70.499 68.7083L69.3172 66.6008C68.6078 65.3366 68.6078 63.7941 69.3172 62.5299L70.499 60.4223L70.5282 58.0056C70.5453 56.5559 71.3166 55.2195 72.5636 54.4792L74.6419 53.246L75.8752 51.1676C76.6155 49.9206 77.9519 49.1493 79.4016 49.1322L81.8183 49.103L83.9259 47.9212C85.1901 47.2118 86.7326 47.2118 87.9968 47.9212Z" fill="url(#paint5_linear_5522_27326)"/>
<path opacity="0.05" d="M91.3205 62.7318C91.0749 62.7318 90.8378 62.7438 90.6025 62.7678L93.921 57.675C94.3316 57.0411 94.3642 56.2338 94.0035 55.5691C93.6428 54.9044 92.9506 54.4921 92.1948 54.4921H90.4857C89.5719 54.4921 88.7303 54.9508 88.2304 55.7168L86.4011 58.5355C85.8137 55.892 83.7903 54.2603 80.9166 54.2603C77.3456 54.2603 74.9443 56.7715 74.9443 60.5108C74.9443 64.9029 78.469 66.6343 81.3065 66.368L77.9983 71.4557C77.5878 72.0896 77.5552 72.8951 77.9159 73.5599C78.2766 74.2246 78.9705 74.6369 79.7263 74.6369H81.4113C82.3251 74.6369 83.1668 74.18 83.6649 73.4156L85.5217 70.5643C86.1263 73.1648 88.2218 74.8722 91.0285 74.8722C94.5308 74.8722 96.9768 72.3111 96.9768 68.6457C96.9768 64.9973 94.8091 62.7318 91.3205 62.7318ZM91.2157 66.5003L91.2192 68.1973H91.2157V66.5003Z" fill="black"/>
<path opacity="0.07" d="M91.3203 63.5902C90.2743 63.5902 89.345 63.8444 88.5738 64.3064L93.1977 57.2073C93.4399 56.838 93.4571 56.3674 93.2458 55.9792C93.0363 55.5927 92.6326 55.3523 92.1929 55.3523H90.4838C89.862 55.3523 89.2883 55.6632 88.9482 56.1853L85.6246 61.2988C85.6795 60.9467 85.7105 60.5791 85.7105 60.1961C85.7105 57.0648 83.8726 55.1187 80.9147 55.1187C77.8075 55.1187 75.8013 57.2348 75.8013 60.5104C75.8013 63.9852 78.2215 65.5414 80.621 65.5414C81.6448 65.5414 82.5551 65.2975 83.3126 64.8543L78.7179 71.9242C78.4774 72.2935 78.4602 72.7642 78.6698 73.1506C78.881 73.5388 79.2847 73.7793 79.7244 73.7793H81.4094C82.0312 73.7793 82.6049 73.4684 82.945 72.948L86.3065 67.7864C86.2395 68.166 86.2051 68.5662 86.2051 68.9819C86.2051 72.4567 88.6253 74.0129 91.0249 74.0129C94.0686 74.0129 96.1143 71.8555 96.1143 68.6452C96.1177 65.4796 94.3245 63.5902 91.3203 63.5902ZM81.5606 60.3008C81.5606 61.7729 81.0625 61.7729 80.7636 61.7729C80.4802 61.7729 80.0044 61.7729 80.0044 60.3953C80.0044 58.8889 80.5317 58.8889 80.846 58.8889C81.0951 58.8872 81.5606 58.8872 81.5606 60.3008ZM91.9645 68.7706C91.9645 70.2426 91.4663 70.2426 91.1692 70.2426C90.8566 70.2426 90.3842 70.2426 90.3842 68.8651C90.3842 67.3587 90.9047 67.3587 91.2138 67.3587C91.8906 67.3587 91.9645 68.3464 91.9645 68.7706Z" fill="black"/>
<path d="M80.6245 64.6826C79.113 64.6826 76.6636 63.8496 76.6636 60.5104C76.6636 57.6213 78.383 55.9775 80.9165 55.9775C83.3728 55.9775 84.8551 57.5372 84.8551 60.1961C84.8551 62.855 83.2903 64.6826 80.6245 64.6826ZM92.4798 56.7402L82.2288 72.4791C82.0502 72.7539 81.7427 72.9205 81.4146 72.9205H79.7296C79.4582 72.9205 79.295 72.6199 79.4427 72.3932L89.6714 56.6543C89.85 56.3795 90.1575 56.2129 90.4856 56.2129H92.1929C92.4643 56.2111 92.6275 56.5117 92.4798 56.7402ZM80.8461 58.0284C79.7124 58.0284 79.1456 58.8168 79.1456 60.3936C79.1456 61.8846 79.6849 62.63 80.7653 62.63C81.8681 62.63 82.4195 61.8537 82.4195 60.2992C82.4177 58.7859 81.8938 58.0284 80.8461 58.0284ZM91.0284 73.1541C88.9328 73.1541 87.0674 71.7989 87.0674 68.9819C87.0674 66.1667 88.7799 64.449 91.3204 64.449C93.8608 64.449 95.259 65.9949 95.259 68.6436C95.259 71.2922 93.6976 73.1541 91.0284 73.1541ZM91.2156 66.4999C90.0888 66.4999 89.5271 67.2883 89.5271 68.8651C89.5271 70.3561 90.0751 71.1015 91.1692 71.1015C92.2719 71.1015 92.8233 70.3252 92.8233 68.7707C92.8233 67.6095 92.3802 66.4999 91.2156 66.4999Z" fill="white"/>
<defs>
<linearGradient id="paint0_linear_5522_27326" x1="51.1492" y1="83.2486" x2="51.1492" y2="52.542" gradientUnits="userSpaceOnUse">
<stop stop-color="#92A3B0"/>
<stop offset="0.015" stop-color="#A3B5C4"/>
<stop offset="0.032" stop-color="#AEC2D1"/>
<stop offset="0.046" stop-color="#B2C6D6"/>
</linearGradient>
<linearGradient id="paint1_linear_5522_27326" x1="85.1031" y1="107.507" x2="85.1031" y2="93.7661" gradientUnits="userSpaceOnUse">
<stop stop-color="#92A3B0"/>
<stop offset="0.015" stop-color="#A3B5C4"/>
<stop offset="0.032" stop-color="#AEC2D1"/>
<stop offset="0.046" stop-color="#B2C6D6"/>
</linearGradient>
<linearGradient id="paint2_linear_5522_27326" x1="44.7381" y1="50.8899" x2="44.7381" y2="57.7606" gradientUnits="userSpaceOnUse">
<stop stop-color="#35E4DD"/>
<stop offset="0.259" stop-color="#22C6C0"/>
<stop offset="1" stop-color="#00A9A3"/>
</linearGradient>
<linearGradient id="paint3_linear_5522_27326" x1="85.2019" y1="105.24" x2="85.2019" y2="35.6535" gradientUnits="userSpaceOnUse">
<stop stop-color="#05726E"/>
<stop offset="0.28125" stop-color="#138A85"/>
<stop offset="0.53125" stop-color="#02AAA4"/>
</linearGradient>
<linearGradient id="paint4_linear_5522_27326" x1="84.9596" y1="61.2445" x2="84.9596" y2="73.1823" gradientUnits="userSpaceOnUse">
<stop stop-color="#35E4DD"/>
<stop offset="0.259" stop-color="#22C6C0"/>
<stop offset="1" stop-color="#00A9A3"/>
</linearGradient>
<linearGradient id="paint5_linear_5522_27326" x1="85.9613" y1="91.2333" x2="85.9613" y2="9.07838" gradientUnits="userSpaceOnUse">
<stop stop-color="#05726E"/>
<stop offset="0.28125" stop-color="#138A85"/>
<stop offset="0.53125" stop-color="#02AAA4"/>
</linearGradient>
</defs>
</svg>
