<svg width="165" height="166" viewBox="0 0 165 166" fill="none" xmlns="http://www.w3.org/2000/svg">
<ellipse opacity="0.2" cx="82.4451" cy="82.8251" rx="82.4451" ry="82.8251" fill="white"/>
<rect x="12.165" y="11.1396" width="141.205" height="141.205" rx="70.6027" fill="#FAFAFA" fill-opacity="0.96"/>
<g clip-path="url(#clip0_5522_27319)">
<path d="M99.9047 36.9775H56.5645C54.1699 36.9775 52.2305 38.917 52.2305 41.3116V121.491C52.2305 123.885 54.1699 125.825 56.5645 125.825H99.9047C102.299 125.825 104.239 123.885 104.239 121.491V41.3116C104.239 38.917 102.299 36.9775 99.9047 36.9775Z" fill="url(#paint0_linear_5522_27319)"/>
<path d="M63.0645 36.9775H93.4026L92.2237 40.5141C91.6343 42.2845 89.9765 43.4786 88.1107 43.4786H68.3541C66.4883 43.4786 64.8327 42.2845 64.2433 40.5141L63.0645 36.9775Z" fill="url(#paint1_linear_5522_27319)"/>
<path d="M85.8189 41.3115C86.4173 41.3115 86.9024 40.8264 86.9024 40.228C86.9024 39.6296 86.4173 39.1445 85.8189 39.1445C85.2205 39.1445 84.7354 39.6296 84.7354 40.228C84.7354 40.8264 85.2205 41.3115 85.8189 41.3115Z" fill="#0C716D"/>
<path d="M81.4849 39.1445C81.2834 39.1445 73.0184 39.1445 72.8169 39.1445C72.2188 39.1445 71.7334 39.6299 71.7334 40.228C71.7334 40.8261 72.2188 41.3115 72.8169 41.3115C73.0184 41.3115 81.2834 41.3115 81.4849 41.3115C82.083 41.3115 82.5684 40.8261 82.5684 40.228C82.5684 39.6299 82.083 39.1445 81.4849 39.1445Z" fill="#0C716D"/>
<rect opacity="0.4" x="57.3096" y="49.1709" width="8.88594" height="15.5504" rx="0.712015" fill="#2CD5CE"/>
<rect opacity="0.4" x="57.3096" y="66.9424" width="19.9934" height="15.5504" rx="0.712015" fill="#2CD5CE"/>
<rect opacity="0.4" x="57.3096" y="84.7158" width="19.9934" height="15.5504" rx="0.712015" fill="#2CD5CE"/>
<rect opacity="0.4" x="57.3096" y="102.487" width="19.9934" height="15.5504" rx="0.712015" fill="#2CD5CE"/>
<rect opacity="0.4" x="79.5244" y="66.9424" width="19.9934" height="15.5504" rx="0.712015" fill="#2CD5CE"/>
<rect opacity="0.4" x="79.5244" y="84.7158" width="19.9934" height="15.5504" rx="0.712015" fill="#2CD5CE"/>
<rect opacity="0.4" x="79.5244" y="102.487" width="19.9934" height="15.5504" rx="0.712015" fill="#2CD5CE"/>
<rect opacity="0.4" x="68.417" y="49.1709" width="8.88594" height="15.5504" rx="0.712015" fill="#2CD5CE"/>
<rect opacity="0.4" x="79.5244" y="49.1709" width="8.88594" height="15.5504" rx="0.712015" fill="#2CD5CE"/>
<rect opacity="0.4" x="90.6309" y="49.1709" width="8.88594" height="15.5504" rx="0.712015" fill="#2CD5CE"/>
<circle opacity="0.07" cx="104.628" cy="87.3358" r="23.7381" fill="black"/>
<circle opacity="0.05" cx="104.627" cy="87.3348" r="25.5926" fill="black"/>
<path d="M104.782 109.901C117.158 109.901 127.191 99.8682 127.191 87.492C127.191 75.1159 117.158 65.083 104.782 65.083C92.4059 65.083 82.373 75.1159 82.373 87.492C82.373 99.8682 92.4059 109.901 104.782 109.901Z" fill="url(#paint2_linear_5522_27319)"/>
<path d="M104.784 109.901C111.99 109.901 117.832 99.8682 117.832 87.492C117.832 75.1159 111.99 65.083 104.784 65.083C97.578 65.083 91.7363 75.1159 91.7363 87.492C91.7363 99.8682 97.578 109.901 104.784 109.901Z" fill="url(#paint3_linear_5522_27319)"/>
<path d="M82.373 87.4913C82.373 91.1182 83.2347 94.5445 84.7652 97.5753H124.799C126.329 94.5445 127.191 91.1182 127.191 87.4913C127.191 83.8644 126.329 80.438 124.799 77.4072H84.7652C83.2347 80.438 82.373 83.8644 82.373 87.4913Z" fill="url(#paint4_linear_5522_27319)"/>
<path d="M91.7363 87.4911C91.7363 91.1179 92.2383 94.5441 93.129 97.5749H116.438C117.329 94.5441 117.831 91.1179 117.831 87.4911C117.831 83.8642 117.329 80.438 116.438 77.4072H93.129C92.2383 80.438 91.7363 83.8642 91.7363 87.4911Z" fill="url(#paint5_linear_5522_27319)"/>
<g opacity="0.9">
<path d="M97.994 84L96.0473 91.4678H93.8452L92.6538 86.5531L91.4198 91.4678H89.2178L87.3242 84H89.2709L90.3454 89.436L91.6751 84H93.675L94.9516 89.436L96.0366 84H97.994Z" fill="white"/>
<path d="M110.147 84L108.201 91.4678H105.999L104.807 86.5531L103.573 91.4678H101.371L99.4775 84H101.424L102.499 89.436L103.828 84H105.828L107.105 89.436L108.19 84H110.147Z" fill="white"/>
<path d="M122.301 84L120.354 91.4678H118.152L116.961 86.5531L115.727 91.4678H113.525L111.631 84H113.578L114.653 89.436L115.982 84H117.982L119.259 89.436L120.344 84H122.301Z" fill="white"/>
</g>
</g>
<defs>
<linearGradient id="paint0_linear_5522_27319" x1="86.4967" y1="20.4515" x2="88.8094" y2="189" gradientUnits="userSpaceOnUse">
<stop stop-color="#05726E"/>
<stop offset="0.28125" stop-color="#138A85"/>
<stop offset="0.53125" stop-color="#02AAA4"/>
</linearGradient>
<linearGradient id="paint1_linear_5522_27319" x1="78.2335" y1="37.0397" x2="78.2335" y2="43.5407" gradientUnits="userSpaceOnUse">
<stop stop-color="#35E4DD"/>
<stop offset="0.259" stop-color="#22C6C0"/>
<stop offset="1" stop-color="#00B4AD"/>
</linearGradient>
<linearGradient id="paint2_linear_5522_27319" x1="83.6143" y1="65.6955" x2="125.634" y2="108.964" gradientUnits="userSpaceOnUse">
<stop stop-color="#FFD869"/>
<stop offset="1" stop-color="#FEC52B"/>
</linearGradient>
<linearGradient id="paint3_linear_5522_27319" x1="94.3767" y1="73.2778" x2="127.504" y2="96.0728" gradientUnits="userSpaceOnUse">
<stop stop-color="#EBA600"/>
<stop offset="1" stop-color="#C28200"/>
</linearGradient>
<linearGradient id="paint4_linear_5522_27319" x1="83.6143" y1="77.6829" x2="97.4968" y2="109.45" gradientUnits="userSpaceOnUse">
<stop stop-color="#FFD869"/>
<stop offset="1" stop-color="#D0A01E"/>
</linearGradient>
<linearGradient id="paint5_linear_5522_27319" x1="94.3766" y1="81.0948" x2="108.998" y2="103.454" gradientUnits="userSpaceOnUse">
<stop stop-color="#EBA600"/>
<stop offset="1" stop-color="#C28200"/>
</linearGradient>
<clipPath id="clip0_5522_27319">
<rect width="96" height="90" fill="white" transform="translate(34.7676 36.7422)"/>
</clipPath>
</defs>
</svg>
