<svg width="165" height="166" viewBox="0 0 165 166" fill="none" xmlns="http://www.w3.org/2000/svg">
<ellipse opacity="0.2" cx="82.4451" cy="82.8251" rx="82.4451" ry="82.8251" fill="white"/>
<rect x="12.165" y="11.1401" width="141.205" height="141.205" rx="70.6027" fill="#FAFAFA" fill-opacity="0.96"/>
<g clip-path="url(#clip0_5522_27328)">
<path d="M69.8758 82.3579V122.47H56.9673C55.186 122.47 53.7402 124.104 53.7402 126.117C53.7402 128.129 55.186 129.763 56.9673 129.763H108.601C110.382 129.763 111.828 128.129 111.828 126.117C111.828 124.104 110.382 122.47 108.601 122.47H95.6927V82.3579H69.8758Z" fill="url(#paint0_linear_5522_27328)"/>
<path d="M95.6927 122.418H69.8758V122.47H56.9673C55.186 122.47 53.7402 124.103 53.7402 126.116C53.7402 128.129 55.186 129.763 56.9673 129.763H108.601C110.382 129.763 111.828 128.129 111.828 126.116C111.828 124.103 110.382 122.47 108.601 122.47H95.6927V122.418Z" fill="url(#paint1_linear_5522_27328)"/>
<path d="M118.399 74.2331L110.186 51.6434C109.259 49.0939 106.833 47.3965 104.119 47.3965H61.5272C58.8132 47.3965 56.3897 49.0939 55.4602 51.6434L47.2472 74.2331C45.7176 78.4413 48.835 82.8947 53.3142 82.8947H112.335C116.811 82.8915 119.928 78.4413 118.399 74.2331Z" fill="url(#paint2_linear_5522_27328)"/>
<path d="M114.152 71.8513L106.911 53.1563C106.094 51.0464 103.954 49.6416 101.561 49.6416H64.0078C61.6149 49.6416 59.478 51.0464 58.6585 53.1563L51.417 71.8513C50.0683 75.3339 52.8169 79.0194 56.7663 79.0194H108.806C112.752 79.0168 115.501 75.3339 114.152 71.8513Z" fill="url(#paint3_linear_5522_27328)"/>
<path opacity="0.6" d="M105.152 64.3306H61.0851C59.9794 64.3306 59.082 65.0784 59.082 65.9998C59.082 66.9212 59.9794 67.669 61.0851 67.669H105.152C106.258 67.669 107.155 66.9212 107.155 65.9998C107.155 65.0784 106.258 64.3306 105.152 64.3306Z" fill="#121212"/>
<path d="M95.8034 64.4561C98.2036 61.5502 99.6458 57.824 99.6458 53.7616C99.6458 44.4804 92.1215 36.9561 82.8402 36.9561C73.559 36.9561 66.0347 44.4804 66.0347 53.7616C66.0347 57.824 67.4769 61.5502 69.877 64.4561H95.8034Z" fill="url(#paint4_linear_5522_27328)"/>
<path d="M73.3936 64.4567H92.2891C95.25 61.8396 97.1261 58.0248 97.1261 53.7623C97.1261 45.8728 90.7308 39.4775 82.8414 39.4775C74.9519 39.4775 68.5566 45.8728 68.5566 53.7623C68.5566 58.0248 70.4328 61.8396 73.3936 64.4567Z" fill="#F5BE00"/>
<path d="M87.2521 56.5779C87.2521 52.2574 80.8752 53.1022 80.8752 50.5493C80.8752 49.2171 82.3739 49.1468 82.8414 49.1468C83.9674 49.1468 85.0536 49.4478 85.8817 49.8374C86.1429 49.9596 86.4424 49.7778 86.4424 49.4905V48.2332C86.4424 47.8115 86.2835 47.5625 86.0299 47.4632C85.4616 47.2432 84.6473 47.0812 83.4403 47.0415V45.6574C83.4403 45.4908 83.3059 45.3579 83.1409 45.3579H82.5404C82.3739 45.3579 82.241 45.4924 82.241 45.6574V47.0629C80.3695 47.2447 78.4292 48.3004 78.4292 50.7571C78.4292 55.235 84.8061 54.3474 84.8061 56.7047C84.8061 57.4457 84.3325 58.0843 82.8399 58.0843C81.3396 58.0843 79.96 57.5603 79.1977 57.1707C78.941 57.0393 78.6385 57.2303 78.6385 57.519V58.9505C78.6385 59.2255 78.8035 59.47 79.0571 59.5754C79.9616 59.9589 81.1746 60.2507 82.241 60.3347V61.864C82.241 62.0306 82.3754 62.1635 82.5404 62.1635H83.1409C83.3074 62.1635 83.4403 62.029 83.4403 61.864V60.3393C86.2407 60.1055 87.2521 58.231 87.2521 56.5779Z" fill="#FEE119"/>
<path d="M69.877 64.4556C70.8379 65.6197 71.9593 66.6418 73.1968 67.5111H92.485C93.7225 66.6418 94.8439 65.6197 95.8049 64.4556H69.877Z" fill="#E3A600"/>
<path d="M79.0112 67.5111H86.6699C88.7813 66.9245 90.6911 65.8672 92.2876 64.4556H73.3936C74.9901 65.8672 76.8998 66.9245 79.0112 67.5111Z" fill="#C48C00"/>
</g>
<defs>
<linearGradient id="paint0_linear_5522_27328" x1="82.7842" y1="82.2631" x2="82.7842" y2="129.858" gradientUnits="userSpaceOnUse">
<stop stop-color="#484B4F"/>
<stop offset="0.23" stop-color="#656D75"/>
<stop offset="0.367" stop-color="#727D86"/>
</linearGradient>
<linearGradient id="paint1_linear_5522_27328" x1="82.7842" y1="122.404" x2="82.7842" y2="129.778" gradientUnits="userSpaceOnUse">
<stop stop-color="#A1AAB3"/>
<stop offset="1" stop-color="#8F979E"/>
</linearGradient>
<linearGradient id="paint2_linear_5522_27328" x1="53.788" y1="48.7391" x2="90.687" y2="95.229" gradientUnits="userSpaceOnUse">
<stop stop-color="#A1AAB3"/>
<stop offset="1" stop-color="#8F979E"/>
</linearGradient>
<linearGradient id="paint3_linear_5522_27328" x1="82.7845" y1="87.1368" x2="82.7845" y2="16.8785" gradientUnits="userSpaceOnUse">
<stop stop-color="#05726E"/>
<stop offset="0.28125" stop-color="#138A85"/>
<stop offset="0.53125" stop-color="#02AAA4"/>
</linearGradient>
<linearGradient id="paint4_linear_5522_27328" x1="71.3315" y1="65.2154" x2="94.6713" y2="41.8755" gradientUnits="userSpaceOnUse">
<stop stop-color="#FEDE00"/>
<stop offset="1" stop-color="#FFD000"/>
</linearGradient>
<clipPath id="clip0_5522_27328">
<rect width="89.7588" height="89.7588" fill="white" transform="translate(37.8882 36.8633)"/>
</clipPath>
</defs>
</svg>
