<svg width="165" height="166" viewBox="0 0 165 166" fill="none" xmlns="http://www.w3.org/2000/svg">
<ellipse opacity="0.2" cx="82.4451" cy="82.8251" rx="82.4451" ry="82.8251" fill="white"/>
<rect x="12.165" y="11.1401" width="141.205" height="141.205" rx="70.6027" fill="#FAFAFA" fill-opacity="0.96"/>
<path d="M126.493 108.471L126.493 55.2955C126.493 53.0355 124.662 51.2051 122.402 51.2051L48.7744 51.2051C46.5144 51.2051 44.6839 53.0355 44.6839 55.2955L44.6839 108.471C44.6839 110.731 46.5144 112.562 48.7744 112.562L122.402 112.562C124.662 112.562 126.493 110.731 126.493 108.471Z" fill="url(#paint0_linear_5522_27318)"/>
<path d="M121.38 81.8839C121.38 82.4487 121.837 82.9065 122.402 82.9065C122.967 82.9065 123.425 82.4487 123.425 81.8839C123.425 81.3192 122.967 80.8613 122.402 80.8613C121.837 80.8613 121.38 81.3192 121.38 81.8839Z" fill="#1C6C69"/>
<path d="M46.7289 81.8836C46.7289 83.0131 47.6446 83.9288 48.7741 83.9288C49.9037 83.9288 50.8193 83.0131 50.8193 81.8836C50.8193 80.7541 49.9037 79.8384 48.7741 79.8384C47.6446 79.8384 46.7289 80.7541 46.7289 81.8836Z" fill="#1C6C69"/>
<path d="M118.312 108.472L118.312 55.2959L52.8645 55.2959L52.8645 108.472L118.312 108.472Z" fill="url(#paint1_linear_5522_27318)"/>
<g opacity="0.07">
<path d="M78.0258 91.2675L95.9226 73.3707C96.4357 72.8576 97.2657 72.8576 97.7789 73.3707L100.44 76.0323C100.954 76.5454 100.954 77.3754 100.44 77.8886L82.5437 95.7854C82.0305 96.2985 81.2005 96.2985 80.6874 95.7854L78.0258 93.1238C77.5142 92.6106 77.5142 91.7806 78.0258 91.2675Z" fill="black"/>
<path d="M80.6895 95.785L70.7403 85.8358C70.2272 85.3227 70.2272 84.4927 70.7403 83.9795L73.4019 81.318C73.915 80.8048 74.745 80.8048 75.2582 81.318L85.2074 91.2672C85.7205 91.7803 85.7205 92.6103 85.2074 93.1234L82.5458 95.785C82.0327 96.2966 81.2027 96.2966 80.6895 95.785Z" fill="black"/>
</g>
<g opacity="0.05">
<path d="M78.1768 93.6636L95.7161 76.1242C96.219 75.6213 97.0324 75.6213 97.5353 76.1242L100.144 78.7326C100.647 79.2355 100.647 80.049 100.144 80.5519L82.6044 98.0912C82.1015 98.5941 81.2881 98.5941 80.7852 98.0912L78.1768 95.4828C77.6754 94.9799 77.6754 94.1664 78.1768 93.6636Z" fill="black"/>
<path d="M80.7868 98.0909L71.0364 88.3404C70.5335 87.8375 70.5335 87.0241 71.0364 86.5212L73.6448 83.9128C74.1477 83.4099 74.9611 83.4099 75.464 83.9128L85.2144 93.6633C85.7173 94.1662 85.7173 94.9796 85.2144 95.4825L82.606 98.0909C82.1031 98.5923 81.2897 98.5923 80.7868 98.0909Z" fill="black"/>
</g>
<path d="M77.3499 88.7652L96.8377 69.2775C97.3965 68.7187 98.3003 68.7187 98.859 69.2775L101.757 72.1756C102.316 72.7344 102.316 73.6382 101.757 74.197L82.2694 93.6847C81.7107 94.2435 80.8069 94.2435 80.2481 93.6847L77.3499 90.7866C76.7929 90.2278 76.7929 89.324 77.3499 88.7652Z" fill="#F5BE00"/>
<path d="M80.2503 93.6844L69.4166 82.8508C68.8579 82.292 68.8579 81.3882 69.4166 80.8295L72.3148 77.9313C72.8736 77.3725 73.7774 77.3725 74.3361 77.9313L85.1698 88.7649C85.7285 89.3237 85.7285 90.2275 85.1698 90.7862L82.2716 93.6844C81.7128 94.2415 80.809 94.2415 80.2503 93.6844Z" fill="url(#paint2_linear_5522_27318)"/>
<defs>
<linearGradient id="paint0_linear_5522_27318" x1="125.71" y1="81.8834" x2="43.9016" y2="81.8834" gradientUnits="userSpaceOnUse">
<stop stop-color="#35E4DD"/>
<stop offset="0.259" stop-color="#22C6C0"/>
<stop offset="1" stop-color="#00B4AD"/>
</linearGradient>
<linearGradient id="paint1_linear_5522_27318" x1="118.312" y1="81.8837" x2="52.8645" y2="81.8837" gradientUnits="userSpaceOnUse">
<stop stop-color="#1C6C69"/>
<stop offset="1" stop-color="#21908C"/>
</linearGradient>
<linearGradient id="paint2_linear_5522_27318" x1="71.6122" y1="94.5603" x2="85.4139" y2="83.2671" gradientUnits="userSpaceOnUse">
<stop stop-color="#FEDE00"/>
<stop offset="1" stop-color="#FFD000"/>
</linearGradient>
</defs>
</svg>
